<mxfile host="app.diagrams.net" modified="2021-11-05T11:48:39.037Z" agent="5.0 (Macintosh; Intel Mac OS X 10_15_7) AppleWebKit/537.36 (KHTML, like Gecko) Chrome/94.0.4606.71 Safari/537.36" etag="Ab0ZKxw0OhrDHCl7WU_U" version="15.6.8" type="github">
  <diagram id="C5RBs43oDa-KdzZeNtuy" name="Page-1">
    <mxGraphModel dx="946" dy="614" grid="1" gridSize="10" guides="1" tooltips="1" connect="1" arrows="1" fold="1" page="1" pageScale="1" pageWidth="1169" pageHeight="827" math="0" shadow="0">
      <root>
        <mxCell id="WIyWlLk6GJQsqaUBKTNV-0" />
        <mxCell id="WIyWlLk6GJQsqaUBKTNV-1" parent="WIyWlLk6GJQsqaUBKTNV-0" />
        <mxCell id="BfTfpMbQ1nF5UIR1eAzd-0" value="랜덤 흑백 박스 출력" style="swimlane;fontStyle=1;align=center;verticalAlign=top;childLayout=stackLayout;horizontal=1;startSize=26;horizontalStack=0;resizeParent=1;resizeParentMax=0;resizeLast=0;collapsible=1;marginBottom=0;" vertex="1" parent="WIyWlLk6GJQsqaUBKTNV-1">
          <mxGeometry x="254" y="140" width="276" height="200" as="geometry" />
        </mxCell>
        <mxCell id="BfTfpMbQ1nF5UIR1eAzd-1" value="난수 저장 배열[][] : int&#xa;난수:int" style="text;strokeColor=none;fillColor=none;align=left;verticalAlign=top;spacingLeft=4;spacingRight=4;overflow=hidden;rotatable=0;points=[[0,0.5],[1,0.5]];portConstraint=eastwest;" vertex="1" parent="BfTfpMbQ1nF5UIR1eAzd-0">
          <mxGeometry y="26" width="276" height="94" as="geometry" />
        </mxCell>
        <mxCell id="BfTfpMbQ1nF5UIR1eAzd-2" value="" style="line;strokeWidth=1;fillColor=none;align=left;verticalAlign=middle;spacingTop=-1;spacingLeft=3;spacingRight=3;rotatable=0;labelPosition=right;points=[];portConstraint=eastwest;" vertex="1" parent="BfTfpMbQ1nF5UIR1eAzd-0">
          <mxGeometry y="120" width="276" height="8" as="geometry" />
        </mxCell>
        <mxCell id="BfTfpMbQ1nF5UIR1eAzd-3" value="배열 생성()&#xa;난수 생성()&#xa;난수 박스 변환()&#xa;" style="text;strokeColor=none;fillColor=none;align=left;verticalAlign=top;spacingLeft=4;spacingRight=4;overflow=hidden;rotatable=0;points=[[0,0.5],[1,0.5]];portConstraint=eastwest;" vertex="1" parent="BfTfpMbQ1nF5UIR1eAzd-0">
          <mxGeometry y="128" width="276" height="72" as="geometry" />
        </mxCell>
        <mxCell id="BfTfpMbQ1nF5UIR1eAzd-4" value="Main" style="swimlane;fontStyle=1;align=center;verticalAlign=top;childLayout=stackLayout;horizontal=1;startSize=26;horizontalStack=0;resizeParent=1;resizeParentMax=0;resizeLast=0;collapsible=1;marginBottom=0;" vertex="1" parent="WIyWlLk6GJQsqaUBKTNV-1">
          <mxGeometry x="610" y="300" width="250" height="290" as="geometry" />
        </mxCell>
        <mxCell id="BfTfpMbQ1nF5UIR1eAzd-5" value="입력값1: int&#xa;입력값2: int&#xa;난수 저장 배열[][]: int&#xa;방문 여부 확인 배열[][]: boolean&#xa;모임의 번호: int&#xa;개수를 담을 배열[]: int" style="text;strokeColor=none;fillColor=none;align=left;verticalAlign=top;spacingLeft=4;spacingRight=4;overflow=hidden;rotatable=0;points=[[0,0.5],[1,0.5]];portConstraint=eastwest;" vertex="1" parent="BfTfpMbQ1nF5UIR1eAzd-4">
          <mxGeometry y="26" width="250" height="134" as="geometry" />
        </mxCell>
        <mxCell id="BfTfpMbQ1nF5UIR1eAzd-6" value="" style="line;strokeWidth=1;fillColor=none;align=left;verticalAlign=middle;spacingTop=-1;spacingLeft=3;spacingRight=3;rotatable=0;labelPosition=right;points=[];portConstraint=eastwest;" vertex="1" parent="BfTfpMbQ1nF5UIR1eAzd-4">
          <mxGeometry y="160" width="250" height="8" as="geometry" />
        </mxCell>
        <mxCell id="BfTfpMbQ1nF5UIR1eAzd-7" value="사용자에게 입력 값 받기(입력값1,입력값2)&#xa;" style="text;strokeColor=none;fillColor=none;align=left;verticalAlign=top;spacingLeft=4;spacingRight=4;overflow=hidden;rotatable=0;points=[[0,0.5],[1,0.5]];portConstraint=eastwest;" vertex="1" parent="BfTfpMbQ1nF5UIR1eAzd-4">
          <mxGeometry y="168" width="250" height="122" as="geometry" />
        </mxCell>
      </root>
    </mxGraphModel>
  </diagram>
</mxfile>
